<svg xmlns="http://www.w3.org/2000/svg" width="1060.8999290466309px" height="443.12498474121094px" class="sequence hand"><desc></desc><defs><marker viewBox="0 0 5 5" markerWidth="5" markerHeight="5" orient="auto" refX="5" refY="2.5" id="markerArrowBlock"><path d="M 0 0 L 5 2.5 L 0 5 z"/></marker><marker viewBox="0 0 9.6 16" markerWidth="4" markerHeight="16" orient="auto" refX="9.6" refY="8" id="markerArrowOpen"><path d="M 9.6,8 1.92,16 0,13.7 5.76,8 0,2.286 1.92,0 9.6,8 z"/></marker></defs><g class="title"/><g class="actor"><path d="M10,20C63.5,22.5 58.4,17.5 73.7,20.0C75.4,30.2 72.0,26.8 73.7,62.6C20.2,60.0 25.3,65.1 10.0,62.6C11.7,30.1 8.3,30.2 10.0,20.0" stroke="#000000" fill="#ffffff" style="stroke-width: 2;"/><text x="20" y="43.888888359069824" style="font-size: 16px; font-family: danielbd;"><tspan x="20">User</tspan></text></g><g class="actor"><path d="M10,380.5555419921875C25.3,383.1 58.4,378.0 73.7,380.6C75.4,399.6 72.0,416.3 73.7,423.1C58.6,420.6 58.4,425.7 10.0,423.1C8.3,412.4 11.7,412.1 10.0,380.6" stroke="#000000" fill="#ffffff" style="stroke-width: 2;"/><text x="20" y="404.4444303512573" style="font-size: 16px; font-family: danielbd;"><tspan x="20">User</tspan></text></g><path d="M41.8,62.6C54.6,232.5 29.1,113.4 41.8,380.6" stroke="#000000" fill="none" style="stroke-width: 2;"/><g class="actor"><path d="M307.0826759338379,20C382.5,13.3 347.1,26.7 473.9,20.0C475.6,52.4 472.2,49.4 473.9,62.6C402.1,55.9 445.1,69.2 307.1,62.6C308.8,49.9 305.4,29.0 307.1,20.0" stroke="#000000" fill="#ffffff" style="stroke-width: 2;"/><text x="317.0826759338379" y="43.888888359069824" style="font-size: 16px; font-family: danielbd;"><tspan x="317.0826759338379">Business Partner</tspan></text></g><g class="actor"><path d="M307.0826759338379,380.5555419921875C433.9,373.9 347.1,387.2 473.9,380.6C475.6,412.9 472.2,396.0 473.9,423.1C368.7,429.8 433.9,416.5 307.1,423.1C305.4,394.8 308.8,387.4 307.1,380.6" stroke="#000000" fill="#ffffff" style="stroke-width: 2;"/><text x="317.0826759338379" y="404.4444303512573" style="font-size: 16px; font-family: danielbd;"><tspan x="317.0826759338379">Business Partner</tspan></text></g><path d="M390.5,62.6C377.8,304.2 403.2,138.9 390.5,380.6" stroke="#000000" fill="none" style="stroke-width: 2;"/><g class="actor"><path d="M535.7491111755371,20C616.9,24.2 552.4,15.8 639.5,20.0C641.2,55.8 637.8,42.0 639.5,62.6C568.0,66.7 559.0,58.4 535.7,62.6C537.5,55.8 534.0,52.4 535.7,20.0" stroke="#000000" fill="#ffffff" style="stroke-width: 2;"/><text x="545.7491111755371" y="43.888888359069824" style="font-size: 16px; font-family: danielbd;"><tspan x="545.7491111755371">JustGold</tspan></text></g><g class="actor"><path d="M535.7491111755371,380.5555419921875C617.5,384.7 572.8,376.4 639.5,380.6C641.2,397.3 637.8,394.3 639.5,423.1C582.1,419.0 622.9,427.3 535.7,423.1C537.5,390.7 534.0,416.3 535.7,380.6" stroke="#000000" fill="#ffffff" style="stroke-width: 2;"/><text x="545.7491111755371" y="404.4444303512573" style="font-size: 16px; font-family: danielbd;"><tspan x="545.7491111755371">JustGold</tspan></text></g><path d="M587.6,62.6C600.4,138.9 574.9,304.2 587.6,380.6" stroke="#000000" fill="none" style="stroke-width: 2;"/><g class="signal"><text x="193.6414852142334" y="90.17360973358154" style="font-size: 16px; font-family: danielbd;"><tspan x="193.6414852142334">Login</tspan></text><path d="M41.8,105.1C97.6,91.2 241.0,119.1 390.5,105.1" stroke="#000000" fill="none" style="stroke-width: 2; stroke-dasharray: 6, 2; marker-end: url(&quot;#markerArrowBlock&quot;);"/></g><g class="signal"><text x="51.871089935302734" y="132.74305248260498" style="font-size: 16px; font-family: danielbd;"><tspan x="51.839839935302734">Send JWT token signed by private key</tspan></text><path d="M390.5,147.7C219.7,133.8 97.6,161.7 41.8,147.7" stroke="#000000" fill="none" style="stroke-width: 2; stroke-dasharray: 6, 2; marker-end: url(&quot;#markerArrowBlock&quot;);"/></g><g class="signal"><text x="198.5714988708496" y="175.31249523162842" style="font-size: 16px; font-family: danielbd;"><tspan x="198.5714988708496">Onboard (send auth token)</tspan></text><path d="M41.8,190.3C500.3,212.1 277.2,168.4 587.6,190.3" stroke="#000000" fill="none" style="stroke-width: 2; marker-end: url(&quot;#markerArrowBlock&quot;);"/></g><g class="signal"><text x="400.50063705444336" y="217.88193798065186" style="font-size: 16px; font-family: danielbd;"><tspan x="400.50063705444336">Download public key</tspan></text><path d="M587.6,232.8C556.1,240.7 422.0,225.0 390.5,232.8" stroke="#000000" fill="none" style="stroke-width: 2; marker-end: url(&quot;#markerArrowBlock&quot;);"/></g><g class="signal"><text x="612.6436424255371" y="269.1319351196289" style="font-size: 16px; font-family: danielbd;"><tspan x="612.6436424255371">Validate user auth token using public key</tspan></text><path d="M587.6,252.8C590.8,253.6 592.4,252.0 607.6,252.8" stroke="#000000" fill="none" style="stroke-width: 2;"/><path d="M607.6,252.8C608.7,260.2 606.5,257.3 607.6,280.4" stroke="#000000" fill="none" style="stroke-width: 2;"/><path d="M607.6,280.4C595.1,281.2 604.4,279.6 587.6,280.4" stroke="#000000" fill="none" style="stroke-width: 2; marker-end: url(&quot;#markerArrowBlock&quot;);"/></g><g class="signal"><text x="226.0644416809082" y="303.02082347869873" style="font-size: 16px; font-family: danielbd;"><tspan x="226.0644416809082">Create User Profile</tspan></text><path d="M587.6,318.0C394.0,339.8 485.6,296.2 41.8,318.0" stroke="#000000" fill="none" style="stroke-width: 2; marker-end: url(&quot;#markerArrowBlock&quot;);"/></g><g class="signal"><text x="225.04925155639648" y="345.59026622772217" style="font-size: 16px; font-family: danielbd;"><tspan x="225.01800155639648">Success (status: 201)</tspan></text><path d="M587.6,360.6C333.1,338.7 318.3,382.4 41.8,360.6" stroke="#000000" fill="none" style="stroke-width: 2; marker-end: url(&quot;#markerArrowBlock&quot;);"/></g></svg>